<svg xmlns="http://www.w3.org/2000/svg" width="800" height="160.5" viewbox="0 0 800 160.5" style="background-color:white"><g transform="translate(0, 0)"><g text-anchor="middle"><g ><g transform="translate(25.0, 14)"><text x="750.0" font-size="14" font-family="sans-serif" font-weight="normal">16</text><text x="600.0" font-size="14" font-family="sans-serif" font-weight="normal">19</text><text x="550.0" font-size="14" font-family="sans-serif" font-weight="normal">20</text><text x="400.0" font-size="14" font-family="sans-serif" font-weight="normal">23</text><text x="350.0" font-size="14" font-family="sans-serif" font-weight="normal">24</text><text x="300.0" font-size="14" font-family="sans-serif" font-weight="normal">25</text><text x="250.0" font-size="14" font-family="sans-serif" font-weight="normal">26</text><text x="200.0" font-size="14" font-family="sans-serif" font-weight="normal">27</text><text x="150.0" font-size="14" font-family="sans-serif" font-weight="normal">28</text><text x="100.0" font-size="14" font-family="sans-serif" font-weight="normal">29</text><text x="50.0" font-size="14" font-family="sans-serif" font-weight="normal">30</text><text x="0.0" font-size="14" font-family="sans-serif" font-weight="normal">31</text></g><g transform="translate(0, 16.8)"><g transform="translate(0, 0)"><rect style=";fill:rgb(204, 255, 246)" x="600.0" y="0.5" width="200.0" height="62.7" fill="rgb(204, 255, 246)"/><rect style=";fill:rgb(204, 255, 246)" x="400.0" y="0.5" width="200.0" height="62.7" fill="rgb(204, 255, 246)"/><rect style=";fill:rgb(204, 255, 246)" x="350.0" y="0.5" width="50.0" height="62.7" fill="rgb(204, 255, 246)"/><rect style=";fill:rgb(229, 229, 229)" x="300.0" y="0.5" width="50.0" height="62.7" fill="rgb(229, 229, 229)"/><rect style=";fill:rgb(204, 255, 246)" x="200.0" y="0.5" width="100.0" height="62.7" fill="rgb(204, 255, 246)"/><rect style=";fill:rgb(204, 255, 246)" x="150.0" y="0.5" width="50.0" height="62.7" fill="rgb(204, 255, 246)"/><rect style=";fill:rgb(204, 255, 246)" x="100.0" y="0.5" width="50.0" height="62.7" fill="rgb(204, 255, 246)"/><rect style=";fill:rgb(204, 255, 246)" x="50.0" y="0.5" width="50.0" height="62.7" fill="rgb(204, 255, 246)"/><rect style=";fill:rgb(204, 255, 246)" x="0.0" y="0.5" width="50.0" height="62.7" fill="rgb(204, 255, 246)"/></g><g transform="translate(25.0, 38.6)"><g transform="translate(675.0, -6)"><text font-size="14" font-family="sans-serif" font-weight="normal" text-anchor="middle" y="6"><tspan >?</tspan></text></g><g transform="translate(475.0, -6)"><text font-size="14" font-family="sans-serif" font-weight="normal" text-anchor="middle" y="6"><tspan >PLL1_DIV4</tspan></text></g><g transform="translate(350.0, -6)"><text font-size="14" font-family="sans-serif" font-weight="normal" text-anchor="middle" y="6"><tspan >?</tspan></text></g><g transform="translate(225.0, -6)"><text font-size="14" font-family="sans-serif" font-weight="normal" text-anchor="middle" y="6"><tspan >BCLK_SEL</tspan></text></g><g transform="translate(150.0, -6)"><text font-size="14" font-family="sans-serif" font-weight="normal" text-anchor="middle" y="6"><tspan >EN?</tspan></text></g><g transform="translate(100.0, -6)"><text font-size="14" font-family="sans-serif" font-weight="normal" text-anchor="middle" y="6"><tspan >?</tspan></text></g><g transform="translate(50.0, -6)"><text font-size="14" font-family="sans-serif" font-weight="normal" text-anchor="middle" y="6"><tspan >?</tspan></text></g><g transform="translate(0.0, -6)"><text font-size="14" font-family="sans-serif" font-weight="normal" text-anchor="middle" y="6"><tspan >?</tspan></text></g></g><g transform="translate(25.0, 77.2)"/></g></g></g><g stroke="black" stroke-width="1" stroke-linecap="butt" transform="translate(0, 16.8)"><line x2="800.0" y1="63.2" y2="63.2"/><line x2="800.0"/><line x1="0.5" x2="0.5" y2="63.2"/><line x1="50.4375" x2="50.4375" y2="63.2"/><line x1="100.375" x2="100.375" y2="63.2"/><line x1="150.3125" x2="150.3125" y2="63.2"/><line x1="200.25" x2="200.25" y2="63.2"/><line x1="250.1875" x2="250.1875" y2="7.9"/><line x1="250.1875" x2="250.1875" y1="55.300000000000004" y2="63.2"/><line x1="300.125" x2="300.125" y2="63.2"/><line x1="350.0625" x2="350.0625" y2="63.2"/><line x1="400.0" x2="400.0" y2="63.2"/><line x1="449.9375" x2="449.9375" y2="7.9"/><line x1="449.9375" x2="449.9375" y1="55.300000000000004" y2="63.2"/><line x1="499.875" x2="499.875" y2="7.9"/><line x1="499.875" x2="499.875" y1="55.300000000000004" y2="63.2"/><line x1="549.8125" x2="549.8125" y2="7.9"/><line x1="549.8125" x2="549.8125" y1="55.300000000000004" y2="63.2"/><line x1="599.75" x2="599.75" y2="63.2"/><line x1="649.6875" x2="649.6875" y2="7.9"/><line x1="649.6875" x2="649.6875" y1="55.300000000000004" y2="63.2"/><line x1="699.625" x2="699.625" y2="7.9"/><line x1="699.625" x2="699.625" y1="55.300000000000004" y2="63.2"/><line x1="749.5625" x2="749.5625" y2="7.9"/><line x1="749.5625" x2="749.5625" y1="55.300000000000004" y2="63.2"/><line x1="799.5" x2="799.5" y2="63.2"/></g></g><g transform="translate(0, 80)"><g text-anchor="middle"><g ><g transform="translate(25.0, 14)"><text x="750.0" font-size="14" font-family="sans-serif" font-weight="normal">0</text><text x="400.0" font-size="14" font-family="sans-serif" font-weight="normal">7</text><text x="350.0" font-size="14" font-family="sans-serif" font-weight="normal">8</text><text x="0.0" font-size="14" font-family="sans-serif" font-weight="normal">15</text></g><g transform="translate(0, 16.8)"><g transform="translate(0, 0)"><rect style=";fill:rgb(255, 242, 204)" x="400.0" y="0.5" width="400.0" height="62.7" fill="rgb(255, 242, 204)"/><rect style=";fill:rgb(204, 255, 246)" x="0.0" y="0.5" width="400.0" height="62.7" fill="rgb(204, 255, 246)"/></g><g transform="translate(25.0, 38.6)"><g transform="translate(575.0, -6)"><text font-size="14" font-family="sans-serif" font-weight="normal" text-anchor="middle" y="6"><tspan >CLKO_DIV</tspan></text></g><g transform="translate(175.0, -6)"><text font-size="14" font-family="sans-serif" font-weight="normal" text-anchor="middle" y="6"><tspan >BT8D</tspan></text></g></g><g transform="translate(25.0, 77.2)"/></g></g></g><g stroke="black" stroke-width="1" stroke-linecap="butt" transform="translate(0, 16.8)"><line x2="800.0" y1="63.2" y2="63.2"/><line x2="800.0"/><line x1="0.5" x2="0.5" y2="63.2"/><line x1="50.4375" x2="50.4375" y2="7.9"/><line x1="50.4375" x2="50.4375" y1="55.300000000000004" y2="63.2"/><line x1="100.375" x2="100.375" y2="7.9"/><line x1="100.375" x2="100.375" y1="55.300000000000004" y2="63.2"/><line x1="150.3125" x2="150.3125" y2="7.9"/><line x1="150.3125" x2="150.3125" y1="55.300000000000004" y2="63.2"/><line x1="200.25" x2="200.25" y2="7.9"/><line x1="200.25" x2="200.25" y1="55.300000000000004" y2="63.2"/><line x1="250.1875" x2="250.1875" y2="7.9"/><line x1="250.1875" x2="250.1875" y1="55.300000000000004" y2="63.2"/><line x1="300.125" x2="300.125" y2="7.9"/><line x1="300.125" x2="300.125" y1="55.300000000000004" y2="63.2"/><line x1="350.0625" x2="350.0625" y2="7.9"/><line x1="350.0625" x2="350.0625" y1="55.300000000000004" y2="63.2"/><line x1="400.0" x2="400.0" y2="63.2"/><line x1="449.9375" x2="449.9375" y2="7.9"/><line x1="449.9375" x2="449.9375" y1="55.300000000000004" y2="63.2"/><line x1="499.875" x2="499.875" y2="7.9"/><line x1="499.875" x2="499.875" y1="55.300000000000004" y2="63.2"/><line x1="549.8125" x2="549.8125" y2="7.9"/><line x1="549.8125" x2="549.8125" y1="55.300000000000004" y2="63.2"/><line x1="599.75" x2="599.75" y2="7.9"/><line x1="599.75" x2="599.75" y1="55.300000000000004" y2="63.2"/><line x1="649.6875" x2="649.6875" y2="7.9"/><line x1="649.6875" x2="649.6875" y1="55.300000000000004" y2="63.2"/><line x1="699.625" x2="699.625" y2="7.9"/><line x1="699.625" x2="699.625" y1="55.300000000000004" y2="63.2"/><line x1="749.5625" x2="749.5625" y2="7.9"/><line x1="749.5625" x2="749.5625" y1="55.300000000000004" y2="63.2"/><line x1="799.5" x2="799.5" y2="63.2"/></g></g></svg>
