<svg xmlns="http://www.w3.org/2000/svg" width="800" height="160.5" viewbox="0 0 800 160.5" style="background-color:white"><g transform="translate(0, 0)"><g text-anchor="middle"><g ><g transform="translate(25.0, 14)"><text x="750.0" font-size="14" font-family="sans-serif" font-weight="normal">16</text><text x="200.0" font-size="14" font-family="sans-serif" font-weight="normal">27</text><text x="150.0" font-size="14" font-family="sans-serif" font-weight="normal">28</text><text x="100.0" font-size="14" font-family="sans-serif" font-weight="normal">29</text><text x="50.0" font-size="14" font-family="sans-serif" font-weight="normal">30</text><text x="0.0" font-size="14" font-family="sans-serif" font-weight="normal">31</text></g><g transform="translate(0, 16.8)"><g transform="translate(0, 0)"><rect style=";fill:rgb(229, 229, 229)" x="100.0" y="0.5" width="100.0" height="62.7" fill="rgb(229, 229, 229)"/></g><g transform="translate(25.0, 38.6)"><g transform="translate(475.0, -6)"><text font-size="14" font-family="sans-serif" font-weight="normal" text-anchor="middle" y="6"><tspan >FBDIV</tspan></text></g><g transform="translate(50.0, -6)"><text font-size="14" font-family="sans-serif" font-weight="normal" text-anchor="middle" y="6" transform=" rotate(-90)"><tspan >PLLEN</tspan></text></g><g transform="translate(0.0, -6)"><text font-size="14" font-family="sans-serif" font-weight="normal" text-anchor="middle" y="6" transform=" rotate(-90)"><tspan >LOCKED</tspan></text></g></g><g transform="translate(25.0, 77.2)"/></g></g></g><g stroke="black" stroke-width="1" stroke-linecap="butt" transform="translate(0, 16.8)"><line x2="800.0" y1="63.2" y2="63.2"/><line x2="800.0"/><line x1="0.5" x2="0.5" y2="63.2"/><line x1="50.4375" x2="50.4375" y2="63.2"/><line x1="100.375" x2="100.375" y2="63.2"/><line x1="150.3125" x2="150.3125" y2="7.9"/><line x1="150.3125" x2="150.3125" y1="55.300000000000004" y2="63.2"/><line x1="200.25" x2="200.25" y2="63.2"/><line x1="250.1875" x2="250.1875" y2="7.9"/><line x1="250.1875" x2="250.1875" y1="55.300000000000004" y2="63.2"/><line x1="300.125" x2="300.125" y2="7.9"/><line x1="300.125" x2="300.125" y1="55.300000000000004" y2="63.2"/><line x1="350.0625" x2="350.0625" y2="7.9"/><line x1="350.0625" x2="350.0625" y1="55.300000000000004" y2="63.2"/><line x1="400.0" x2="400.0" y2="7.9"/><line x1="400.0" x2="400.0" y1="55.300000000000004" y2="63.2"/><line x1="449.9375" x2="449.9375" y2="7.9"/><line x1="449.9375" x2="449.9375" y1="55.300000000000004" y2="63.2"/><line x1="499.875" x2="499.875" y2="7.9"/><line x1="499.875" x2="499.875" y1="55.300000000000004" y2="63.2"/><line x1="549.8125" x2="549.8125" y2="7.9"/><line x1="549.8125" x2="549.8125" y1="55.300000000000004" y2="63.2"/><line x1="599.75" x2="599.75" y2="7.9"/><line x1="599.75" x2="599.75" y1="55.300000000000004" y2="63.2"/><line x1="649.6875" x2="649.6875" y2="7.9"/><line x1="649.6875" x2="649.6875" y1="55.300000000000004" y2="63.2"/><line x1="699.625" x2="699.625" y2="7.9"/><line x1="699.625" x2="699.625" y1="55.300000000000004" y2="63.2"/><line x1="749.5625" x2="749.5625" y2="7.9"/><line x1="749.5625" x2="749.5625" y1="55.300000000000004" y2="63.2"/><line x1="799.5" x2="799.5" y2="63.2"/></g></g><g transform="translate(0, 80)"><g text-anchor="middle"><g ><g transform="translate(25.0, 14)"><text x="750.0" font-size="14" font-family="sans-serif" font-weight="normal">0</text><text x="650.0" font-size="14" font-family="sans-serif" font-weight="normal">2</text><text x="600.0" font-size="14" font-family="sans-serif" font-weight="normal">3</text><text x="550.0" font-size="14" font-family="sans-serif" font-weight="normal">4</text><text x="450.0" font-size="14" font-family="sans-serif" font-weight="normal">6</text><text x="400.0" font-size="14" font-family="sans-serif" font-weight="normal">7</text><text x="350.0" font-size="14" font-family="sans-serif" font-weight="normal">8</text><text x="100.0" font-size="14" font-family="sans-serif" font-weight="normal">13</text><text x="50.0" font-size="14" font-family="sans-serif" font-weight="normal">14</text><text x="0.0" font-size="14" font-family="sans-serif" font-weight="normal">15</text></g><g transform="translate(0, 16.8)"><g transform="translate(0, 0)"><rect style=";fill:rgb(229, 229, 229)" x="600.0" y="0.5" width="50.0" height="62.7" fill="rgb(229, 229, 229)"/><rect style=";fill:rgb(229, 229, 229)" x="400.0" y="0.5" width="50.0" height="62.7" fill="rgb(229, 229, 229)"/><rect style=";fill:rgb(229, 229, 229)" x="0.0" y="0.5" width="100.0" height="62.7" fill="rgb(229, 229, 229)"/></g><g transform="translate(25.0, 38.6)"><g transform="translate(700.0, -6)"><text font-size="14" font-family="sans-serif" font-weight="normal" text-anchor="middle" y="6"><tspan >POSTDIV2</tspan></text></g><g transform="translate(500.0, -6)"><text font-size="14" font-family="sans-serif" font-weight="normal" text-anchor="middle" y="6"><tspan >POSTDIV1</tspan></text></g><g transform="translate(225.0, -6)"><text font-size="14" font-family="sans-serif" font-weight="normal" text-anchor="middle" y="6"><tspan >REFDIV</tspan></text></g></g><g transform="translate(25.0, 77.2)"/></g></g></g><g stroke="black" stroke-width="1" stroke-linecap="butt" transform="translate(0, 16.8)"><line x2="800.0" y1="63.2" y2="63.2"/><line x2="800.0"/><line x1="0.5" x2="0.5" y2="63.2"/><line x1="50.4375" x2="50.4375" y2="7.9"/><line x1="50.4375" x2="50.4375" y1="55.300000000000004" y2="63.2"/><line x1="100.375" x2="100.375" y2="63.2"/><line x1="150.3125" x2="150.3125" y2="7.9"/><line x1="150.3125" x2="150.3125" y1="55.300000000000004" y2="63.2"/><line x1="200.25" x2="200.25" y2="7.9"/><line x1="200.25" x2="200.25" y1="55.300000000000004" y2="63.2"/><line x1="250.1875" x2="250.1875" y2="7.9"/><line x1="250.1875" x2="250.1875" y1="55.300000000000004" y2="63.2"/><line x1="300.125" x2="300.125" y2="7.9"/><line x1="300.125" x2="300.125" y1="55.300000000000004" y2="63.2"/><line x1="350.0625" x2="350.0625" y2="7.9"/><line x1="350.0625" x2="350.0625" y1="55.300000000000004" y2="63.2"/><line x1="400.0" x2="400.0" y2="63.2"/><line x1="449.9375" x2="449.9375" y2="63.2"/><line x1="499.875" x2="499.875" y2="7.9"/><line x1="499.875" x2="499.875" y1="55.300000000000004" y2="63.2"/><line x1="549.8125" x2="549.8125" y2="7.9"/><line x1="549.8125" x2="549.8125" y1="55.300000000000004" y2="63.2"/><line x1="599.75" x2="599.75" y2="63.2"/><line x1="649.6875" x2="649.6875" y2="63.2"/><line x1="699.625" x2="699.625" y2="7.9"/><line x1="699.625" x2="699.625" y1="55.300000000000004" y2="63.2"/><line x1="749.5625" x2="749.5625" y2="7.9"/><line x1="749.5625" x2="749.5625" y1="55.300000000000004" y2="63.2"/><line x1="799.5" x2="799.5" y2="63.2"/></g></g></svg>
