<?xml version='1.0' encoding='UTF-8'?>
<!DOCTYPE svg PUBLIC "-//W3C//DTD SVG 1.0//EN" "http://www.w3.org/TR/2001/REC-SVG-20010904/DTD/svg10.dtd">
<svg viewBox="0 0 512 280" xmlns="http://www.w3.org/2000/svg" xmlns:inkspace="http://www.inkscape.org/namespaces/inkscape" xmlns:xlink="http://www.w3.org/1999/xlink">
  <defs id="defs_block">
    <filter height="1.504" id="filter_blur" inkspace:collect="always" width="1.1575" x="-0.07875" y="-0.252">
      <feGaussianBlur id="feGaussianBlur3780" inkspace:collect="always" stdDeviation="4.2" />
    </filter>
  </defs>
  <title>blockdiag</title>
  <desc />
  <path d="M 64 48 L 64 80" fill="none" stroke="rgb(0,0,0)" />
  <text fill="rgb(0,0,0)" font-family="sans-serif" font-size="11" font-style="normal" font-weight="normal" text-anchor="middle" textLength="7" x="64" y="42">0</text>
  <path d="M 88 64 L 88 80" fill="none" stroke="rgb(0,0,0)" />
  <path d="M 112 64 L 112 80" fill="none" stroke="rgb(0,0,0)" />
  <path d="M 136 64 L 136 80" fill="none" stroke="rgb(0,0,0)" />
  <path d="M 160 48 L 160 80" fill="none" stroke="rgb(0,0,0)" />
  <path d="M 184 64 L 184 80" fill="none" stroke="rgb(0,0,0)" />
  <path d="M 208 64 L 208 80" fill="none" stroke="rgb(0,0,0)" />
  <path d="M 232 64 L 232 80" fill="none" stroke="rgb(0,0,0)" />
  <path d="M 256 48 L 256 80" fill="none" stroke="rgb(0,0,0)" />
  <text fill="rgb(0,0,0)" font-family="sans-serif" font-size="11" font-style="normal" font-weight="normal" text-anchor="middle" textLength="7" x="256" y="42">8</text>
  <path d="M 280 64 L 280 80" fill="none" stroke="rgb(0,0,0)" />
  <path d="M 304 64 L 304 80" fill="none" stroke="rgb(0,0,0)" />
  <path d="M 328 64 L 328 80" fill="none" stroke="rgb(0,0,0)" />
  <path d="M 352 48 L 352 80" fill="none" stroke="rgb(0,0,0)" />
  <path d="M 376 64 L 376 80" fill="none" stroke="rgb(0,0,0)" />
  <path d="M 400 64 L 400 80" fill="none" stroke="rgb(0,0,0)" />
  <path d="M 424 64 L 424 80" fill="none" stroke="rgb(0,0,0)" />
  <path d="M 448 48 L 448 80" fill="none" stroke="rgb(0,0,0)" />
  <text fill="rgb(0,0,0)" font-family="sans-serif" font-size="11" font-style="normal" font-weight="normal" text-anchor="middle" textLength="13" x="448" y="42">16</text>
  <rect fill="rgb(255,255,255)" height="40" stroke="rgb(255,255,255)" width="192" x="64" y="80" />
  <path d="M 64 80 L 256 80" fill="none" stroke="rgb(0,0,0)" />
  <path d="M 256 80 L 256 120" fill="none" stroke="rgb(0,0,0)" />
  <path d="M 256 120 L 64 120" fill="none" stroke="rgb(0,0,0)" />
  <path d="M 64 120 L 64 80" fill="none" stroke="rgb(0,0,0)" />
  <text fill="rgb(0,0,0)" font-family="sans-serif" font-size="11" font-style="normal" font-weight="normal" text-anchor="middle" textLength="25" x="160" y="106">0x55</text>
  <rect fill="rgb(255,255,255)" height="40" stroke="rgb(255,255,255)" width="192" x="256" y="80" />
  <path d="M 256 80 L 448 80" fill="none" stroke="rgb(0,0,0)" />
  <path d="M 448 80 L 448 120" fill="none" stroke="rgb(0,0,0)" />
  <path d="M 448 120 L 256 120" fill="none" stroke="rgb(0,0,0)" />
  <path d="M 256 120 L 256 80" fill="none" stroke="rgb(0,0,0)" />
  <text fill="rgb(0,0,0)" font-family="sans-serif" font-size="11" font-style="normal" font-weight="normal" text-anchor="middle" textLength="25" x="352" y="106">0xAA</text>
  <rect fill="rgb(255,255,255)" height="40" stroke="rgb(255,255,255)" width="24" x="64" y="120" />
  <path d="M 64 120 L 88 120" fill="none" stroke="rgb(0,0,0)" />
  <path d="M 88 120 L 88 160" fill="none" stroke="rgb(0,0,0)" />
  <path d="M 88 160 L 64 160" fill="none" stroke="rgb(0,0,0)" />
  <path d="M 64 160 L 64 120" fill="none" stroke="rgb(0,0,0)" />
  <text fill="rgb(0,0,0)" font-family="sans-serif" font-size="11" font-style="normal" font-weight="normal" text-anchor="middle" textLength="7" x="76" y="146">0</text>
  <rect fill="rgb(255,255,255)" height="40" stroke="rgb(255,255,255)" width="48" x="88" y="120" />
  <path d="M 88 120 L 136 120" fill="none" stroke="rgb(0,0,0)" />
  <path d="M 136 120 L 136 160" fill="none" stroke="rgb(0,0,0)" />
  <path d="M 136 160 L 88 160" fill="none" stroke="rgb(0,0,0)" />
  <path d="M 88 160 L 88 120" fill="none" stroke="rgb(0,0,0)" />
  <text fill="rgb(0,0,0)" font-family="sans-serif" font-size="11" font-style="normal" font-weight="normal" text-anchor="middle" textLength="25" x="112" y="146">TYPE</text>
  <rect fill="rgb(255,255,255)" height="40" stroke="rgb(255,255,255)" width="24" x="136" y="120" />
  <path d="M 136 120 L 160 120" fill="none" stroke="rgb(0,0,0)" />
  <path d="M 160 120 L 160 160" fill="none" stroke="rgb(0,0,0)" />
  <path d="M 160 160 L 136 160" fill="none" stroke="rgb(0,0,0)" />
  <path d="M 136 160 L 136 120" fill="none" stroke="rgb(0,0,0)" />
  <text fill="rgb(0,0,0)" font-family="sans-serif" font-size="11" font-style="normal" font-weight="normal" text-anchor="middle" textLength="19" x="148" y="146">ALL</text>
  <rect fill="rgb(255,255,255)" height="40" stroke="rgb(255,255,255)" width="48" x="160" y="120" />
  <path d="M 160 120 L 208 120" fill="none" stroke="rgb(0,0,0)" />
  <path d="M 208 120 L 208 160" fill="none" stroke="rgb(0,0,0)" />
  <path d="M 208 160 L 160 160" fill="none" stroke="rgb(0,0,0)" />
  <path d="M 160 160 L 160 120" fill="none" stroke="rgb(0,0,0)" />
  <text fill="rgb(0,0,0)" font-family="sans-serif" font-size="11" font-style="normal" font-weight="normal" text-anchor="middle" textLength="7" x="184" y="146">0</text>
  <rect fill="rgb(255,255,255)" height="40" stroke="rgb(255,255,255)" width="48" x="208" y="120" />
  <path d="M 208 120 L 256 120" fill="none" stroke="rgb(0,0,0)" />
  <path d="M 256 120 L 256 160" fill="none" stroke="rgb(0,0,0)" />
  <path d="M 256 160 L 208 160" fill="none" stroke="rgb(0,0,0)" />
  <path d="M 208 160 L 208 120" fill="none" stroke="rgb(0,0,0)" />
  <text fill="rgb(0,0,0)" font-family="sans-serif" font-size="11" font-style="normal" font-weight="normal" text-anchor="middle" textLength="31" x="232" y="146">C M D</text>
  <rect fill="rgb(255,255,255)" height="40" stroke="rgb(255,255,255)" width="192" x="256" y="120" />
  <path d="M 256 120 L 448 120" fill="none" stroke="rgb(0,0,0)" />
  <path d="M 448 120 L 448 160" fill="none" stroke="rgb(0,0,0)" />
  <path d="M 448 160 L 256 160" fill="none" stroke="rgb(0,0,0)" />
  <path d="M 256 160 L 256 120" fill="none" stroke="rgb(0,0,0)" />
  <text fill="rgb(0,0,0)" font-family="sans-serif" font-size="11" font-style="normal" font-weight="normal" text-anchor="middle" textLength="73" x="352" y="146">Frame Lenght</text>
  <rect fill="rgb(255,255,255)" height="40" stroke="rgb(255,255,255)" width="384" x="64" y="160" />
  <path d="M 64 160 L 448 160" fill="none" stroke="rgb(0,0,0)" />
  <path d="M 448 160 L 448 200" fill="none" stroke="rgb(0,0,0)" />
  <path d="M 448 200 L 64 200" fill="none" stroke="rgb(0,0,0)" />
  <path d="M 64 200 L 64 160" fill="none" stroke="rgb(0,0,0)" />
  <text fill="rgb(0,0,0)" font-family="sans-serif" font-size="11" font-style="normal" font-weight="normal" text-anchor="middle" textLength="25" x="256" y="186">Data</text>
  <rect fill="rgb(255,255,255)" height="40" stroke="rgb(255,255,255)" width="384" x="64" y="200" />
  <path d="M 64 200 L 448 200" fill="none" stroke="rgb(0,0,0)" />
  <path d="M 448 200 L 448 240" fill="none" stroke="rgb(0,0,0)" />
  <path d="M 448 240 L 64 240" fill="none" stroke="rgb(0,0,0)" />
  <path d="M 64 240 L 64 200" fill="none" stroke="rgb(0,0,0)" />
  <text fill="rgb(0,0,0)" font-family="sans-serif" font-size="11" font-style="normal" font-weight="normal" text-anchor="middle" textLength="31" x="256" y="226">C R C</text>
</svg>
