<svg xmlns="http://www.w3.org/2000/svg" width="800" height="160" viewbox="0 0 800 160" style="background-color:white"><g transform="translate(0, 80)"><g text-anchor="middle"><g ><g transform="translate(25.0, 14)"><text x="750.0" font-size="14" font-family="sans-serif" font-weight="normal">0</text><text x="700.0" font-size="14" font-family="sans-serif" font-weight="normal">1</text><text x="650.0" font-size="14" font-family="sans-serif" font-weight="normal">2</text><text x="600.0" font-size="14" font-family="sans-serif" font-weight="normal">3</text><text x="550.0" font-size="14" font-family="sans-serif" font-weight="normal">4</text><text x="450.0" font-size="14" font-family="sans-serif" font-weight="normal">6</text><text x="400.0" font-size="14" font-family="sans-serif" font-weight="normal">7</text><text x="350.0" font-size="14" font-family="sans-serif" font-weight="normal">8</text><text x="250.0" font-size="14" font-family="sans-serif" font-weight="normal">10</text><text x="200.0" font-size="14" font-family="sans-serif" font-weight="normal">11</text><text x="150.0" font-size="14" font-family="sans-serif" font-weight="normal">12</text><text x="100.0" font-size="14" font-family="sans-serif" font-weight="normal">13</text><text x="50.0" font-size="14" font-family="sans-serif" font-weight="normal">14</text><text x="0.0" font-size="14" font-family="sans-serif" font-weight="normal">15</text></g><g transform="translate(0, 16.8)"><g transform="translate(0, 0)"><rect style=";fill:rgb(229, 229, 229)" x="0.0" y="0" width="100.0" height="49.199999999999996"/></g><g transform="translate(25.0, 31.599999999999998)"><g transform="translate(750.0, -6)"><text font-size="14" font-family="sans-serif" font-weight="normal" text-anchor="middle" y="6" transform=" rotate(-45)"><tspan >SWP_EN</tspan></text></g><g transform="translate(700.0, -6)"><text font-size="14" font-family="sans-serif" font-weight="normal" text-anchor="middle" y="6" transform=" rotate(-45)"><tspan >SWP_TRIG</tspan></text></g><g transform="translate(650.0, -6)"><text font-size="14" font-family="sans-serif" font-weight="normal" text-anchor="middle" y="6" transform=" rotate(-45)"><tspan >SWP_ONGOING</tspan></text></g><g transform="translate(600.0, -6)"><text font-size="14" font-family="sans-serif" font-weight="normal" text-anchor="middle" y="6" transform=" rotate(-45)"><tspan >SWP_DONE_ALL</tspan></text></g><g transform="translate(500.0, -6)"><text font-size="14" font-family="sans-serif" font-weight="normal" text-anchor="middle" y="6"><tspan >SWP_PAD_ADDR</tspan></text></g><g transform="translate(400.0, -6)"><text font-size="14" font-family="sans-serif" font-weight="normal" text-anchor="middle" y="6" transform=" rotate(-90)"><tspan >SWP_ONE_PAT_DONE</tspan></text></g><g transform="translate(300.0, -6)"><text font-size="14" font-family="sans-serif" font-weight="normal" text-anchor="middle" y="6"><tspan >CURR_PAT_ADDR</tspan></text></g><g transform="translate(200.0, -6)"><text font-size="14" font-family="sans-serif" font-weight="normal" text-anchor="middle" y="6" transform=" rotate(-90)"><tspan >SWEEP_RESET</tspan></text></g><g transform="translate(150.0, -6)"><text font-size="14" font-family="sans-serif" font-weight="normal" text-anchor="middle" y="6" transform=" rotate(-90)"><tspan >SWEEP_FAIL_LOCK_EN</tspan></text></g><g transform="translate(100.0, -6)"><text font-size="14" font-family="sans-serif" font-weight="normal" text-anchor="middle" y="6" transform=" rotate(-45)"><tspan >ALL_CORE_CLK_SEL_CHANGE_ST</tspan></text></g></g><g transform="translate(25.0, 63.199999999999996)"><g transform="translate(0, 0)"><text x="700.0" font-size="14" font-family="sans-serif" font-weight="normal"><tspan >RO</tspan></text></g><g transform="translate(0, 0)"><text x="650.0" font-size="14" font-family="sans-serif" font-weight="normal"><tspan >RO</tspan></text></g><g transform="translate(0, 0)"><text x="600.0" font-size="14" font-family="sans-serif" font-weight="normal"><tspan >RO</tspan></text></g><g transform="translate(0, 0)"><text x="400.0" font-size="14" font-family="sans-serif" font-weight="normal"><tspan >RO</tspan></text></g><g transform="translate(0, 0)"><text x="300.0" font-size="14" font-family="sans-serif" font-weight="normal"><tspan >RO</tspan></text></g><g transform="translate(0, 0)"><text x="100.0" font-size="14" font-family="sans-serif" font-weight="normal"><tspan >RO</tspan></text></g></g></g></g></g><g stroke="black" stroke-width="1" stroke-linecap="round" transform="translate(0, 16.8)"><line x1="0.25" x2="799.5"/><line y2="49.199999999999996"/><line x1="0.25" x2="799.5" y1="49.199999999999996" y2="49.199999999999996"/><line x1="799.5" x2="799.5" y2="49.199999999999996"/><line x1="749.53125" x2="749.53125" y2="49.199999999999996"/><line x1="699.5625" x2="699.5625" y2="49.199999999999996"/><line x1="649.59375" x2="649.59375" y2="49.199999999999996"/><line x1="599.625" x2="599.625" y2="49.199999999999996"/><line x1="549.65625" x2="549.65625" y2="6.1499999999999995"/><line x1="549.65625" x2="549.65625" y1="43.05" y2="49.199999999999996"/><line x1="499.6875" x2="499.6875" y2="6.1499999999999995"/><line x1="499.6875" x2="499.6875" y1="43.05" y2="49.199999999999996"/><line x1="449.71875" x2="449.71875" y2="49.199999999999996"/><line x1="399.75" x2="399.75" y2="49.199999999999996"/><line x1="349.78125" x2="349.78125" y2="6.1499999999999995"/><line x1="349.78125" x2="349.78125" y1="43.05" y2="49.199999999999996"/><line x1="299.8125" x2="299.8125" y2="6.1499999999999995"/><line x1="299.8125" x2="299.8125" y1="43.05" y2="49.199999999999996"/><line x1="249.84375" x2="249.84375" y2="49.199999999999996"/><line x1="199.875" x2="199.875" y2="49.199999999999996"/><line x1="149.90625" x2="149.90625" y2="49.199999999999996"/><line x1="99.9375" x2="99.9375" y2="49.199999999999996"/><line x1="49.96875" x2="49.96875" y2="6.1499999999999995"/><line x1="49.96875" x2="49.96875" y1="43.05" y2="49.199999999999996"/></g></g><g transform="translate(0, 0)"><g text-anchor="middle"><g ><g transform="translate(25.0, 14)"><text x="750.0" font-size="14" font-family="sans-serif" font-weight="normal">16</text><text x="550.0" font-size="14" font-family="sans-serif" font-weight="normal">20</text><text x="500.0" font-size="14" font-family="sans-serif" font-weight="normal">21</text><text x="400.0" font-size="14" font-family="sans-serif" font-weight="normal">23</text><text x="350.0" font-size="14" font-family="sans-serif" font-weight="normal">24</text><text x="250.0" font-size="14" font-family="sans-serif" font-weight="normal">26</text><text x="200.0" font-size="14" font-family="sans-serif" font-weight="normal">27</text><text x="0.0" font-size="14" font-family="sans-serif" font-weight="normal">31</text></g><g transform="translate(0, 16.8)"><g transform="translate(0, 0)"><rect style=";fill:rgb(229, 229, 229)" x="400.0" y="0" width="150.0" height="49.199999999999996"/><rect style=";fill:rgb(229, 229, 229)" x="0.0" y="0" width="250.0" height="49.199999999999996"/></g><g transform="translate(25.0, 31.599999999999998)"><g transform="translate(650.0, -6)"><text font-size="14" font-family="sans-serif" font-weight="normal" text-anchor="middle" y="6"><tspan >SWEEP_ST_ADDR</tspan></text></g><g transform="translate(300.0, -6)"><text font-size="14" font-family="sans-serif" font-weight="normal" text-anchor="middle" y="6"><tspan >SWEEP_STATE</tspan></text></g></g><g transform="translate(25.0, 63.199999999999996)"><g transform="translate(0, 0)"><text x="300.0" font-size="14" font-family="sans-serif" font-weight="normal"><tspan >RO</tspan></text></g></g></g></g></g><g stroke="black" stroke-width="1" stroke-linecap="round" transform="translate(0, 16.8)"><line x1="0.25" x2="799.5"/><line y2="49.199999999999996"/><line x1="0.25" x2="799.5" y1="49.199999999999996" y2="49.199999999999996"/><line x1="799.5" x2="799.5" y2="49.199999999999996"/><line x1="749.53125" x2="749.53125" y2="6.1499999999999995"/><line x1="749.53125" x2="749.53125" y1="43.05" y2="49.199999999999996"/><line x1="699.5625" x2="699.5625" y2="6.1499999999999995"/><line x1="699.5625" x2="699.5625" y1="43.05" y2="49.199999999999996"/><line x1="649.59375" x2="649.59375" y2="6.1499999999999995"/><line x1="649.59375" x2="649.59375" y1="43.05" y2="49.199999999999996"/><line x1="599.625" x2="599.625" y2="6.1499999999999995"/><line x1="599.625" x2="599.625" y1="43.05" y2="49.199999999999996"/><line x1="549.65625" x2="549.65625" y2="49.199999999999996"/><line x1="499.6875" x2="499.6875" y2="6.1499999999999995"/><line x1="499.6875" x2="499.6875" y1="43.05" y2="49.199999999999996"/><line x1="449.71875" x2="449.71875" y2="6.1499999999999995"/><line x1="449.71875" x2="449.71875" y1="43.05" y2="49.199999999999996"/><line x1="399.75" x2="399.75" y2="49.199999999999996"/><line x1="349.78125" x2="349.78125" y2="6.1499999999999995"/><line x1="349.78125" x2="349.78125" y1="43.05" y2="49.199999999999996"/><line x1="299.8125" x2="299.8125" y2="6.1499999999999995"/><line x1="299.8125" x2="299.8125" y1="43.05" y2="49.199999999999996"/><line x1="249.84375" x2="249.84375" y2="49.199999999999996"/><line x1="199.875" x2="199.875" y2="6.1499999999999995"/><line x1="199.875" x2="199.875" y1="43.05" y2="49.199999999999996"/><line x1="149.90625" x2="149.90625" y2="6.1499999999999995"/><line x1="149.90625" x2="149.90625" y1="43.05" y2="49.199999999999996"/><line x1="99.9375" x2="99.9375" y2="6.1499999999999995"/><line x1="99.9375" x2="99.9375" y1="43.05" y2="49.199999999999996"/><line x1="49.96875" x2="49.96875" y2="6.1499999999999995"/><line x1="49.96875" x2="49.96875" y1="43.05" y2="49.199999999999996"/></g></g></svg>
