<svg xmlns="http://www.w3.org/2000/svg" width="800" height="160" viewbox="0 0 800 160"><g transform="translate(0, 80)"><g text-anchor="middle"><g ><g transform="translate(25.0, 14)"><text x="750.0" font-size="14" font-family="sans-serif" font-weight="normal">0</text><text x="400.0" font-size="14" font-family="sans-serif" font-weight="normal">7</text><text x="350.0" font-size="14" font-family="sans-serif" font-weight="normal">8</text><text x="0.0" font-size="14" font-family="sans-serif" font-weight="normal">15</text></g><g transform="translate(0, 16.8)"><g transform="translate(0, 0)"/><g transform="translate(25.0, 38.6)"><g transform="translate(575.0, -6)"><text font-size="14" font-family="sans-serif" font-weight="normal" text-anchor="middle" y="6"><tspan >TM0</tspan></text></g><g transform="translate(175.0, -6)"><text font-size="14" font-family="sans-serif" font-weight="normal" text-anchor="middle" y="6"><tspan >TM1</tspan></text></g></g><g transform="translate(25.0, 77.2)"/></g></g></g><g stroke="black" stroke-width="1" stroke-linecap="round" transform="translate(0, 16.8)"><line x1="0.25" x2="799.5"/><line y2="63.2"/><line x1="0.25" x2="799.5" y1="63.2" y2="63.2"/><line x1="799.5" x2="799.5" y2="63.2"/><line x1="749.53125" x2="749.53125" y2="7.9"/><line x1="749.53125" x2="749.53125" y1="55.300000000000004" y2="63.2"/><line x1="699.5625" x2="699.5625" y2="7.9"/><line x1="699.5625" x2="699.5625" y1="55.300000000000004" y2="63.2"/><line x1="649.59375" x2="649.59375" y2="7.9"/><line x1="649.59375" x2="649.59375" y1="55.300000000000004" y2="63.2"/><line x1="599.625" x2="599.625" y2="7.9"/><line x1="599.625" x2="599.625" y1="55.300000000000004" y2="63.2"/><line x1="549.65625" x2="549.65625" y2="7.9"/><line x1="549.65625" x2="549.65625" y1="55.300000000000004" y2="63.2"/><line x1="499.6875" x2="499.6875" y2="7.9"/><line x1="499.6875" x2="499.6875" y1="55.300000000000004" y2="63.2"/><line x1="449.71875" x2="449.71875" y2="7.9"/><line x1="449.71875" x2="449.71875" y1="55.300000000000004" y2="63.2"/><line x1="399.75" x2="399.75" y2="63.2"/><line x1="349.78125" x2="349.78125" y2="7.9"/><line x1="349.78125" x2="349.78125" y1="55.300000000000004" y2="63.2"/><line x1="299.8125" x2="299.8125" y2="7.9"/><line x1="299.8125" x2="299.8125" y1="55.300000000000004" y2="63.2"/><line x1="249.84375" x2="249.84375" y2="7.9"/><line x1="249.84375" x2="249.84375" y1="55.300000000000004" y2="63.2"/><line x1="199.875" x2="199.875" y2="7.9"/><line x1="199.875" x2="199.875" y1="55.300000000000004" y2="63.2"/><line x1="149.90625" x2="149.90625" y2="7.9"/><line x1="149.90625" x2="149.90625" y1="55.300000000000004" y2="63.2"/><line x1="99.9375" x2="99.9375" y2="7.9"/><line x1="99.9375" x2="99.9375" y1="55.300000000000004" y2="63.2"/><line x1="49.96875" x2="49.96875" y2="7.9"/><line x1="49.96875" x2="49.96875" y1="55.300000000000004" y2="63.2"/></g></g><g transform="translate(0, 0)"><g text-anchor="middle"><g ><g transform="translate(25.0, 14)"><text x="750.0" font-size="14" font-family="sans-serif" font-weight="normal">16</text><text x="400.0" font-size="14" font-family="sans-serif" font-weight="normal">23</text><text x="350.0" font-size="14" font-family="sans-serif" font-weight="normal">24</text><text x="0.0" font-size="14" font-family="sans-serif" font-weight="normal">31</text></g><g transform="translate(0, 16.8)"><g transform="translate(0, 0)"/><g transform="translate(25.0, 38.6)"><g transform="translate(575.0, -6)"><text font-size="14" font-family="sans-serif" font-weight="normal" text-anchor="middle" y="6"><tspan >TM2</tspan></text></g><g transform="translate(175.0, -6)"><text font-size="14" font-family="sans-serif" font-weight="normal" text-anchor="middle" y="6"><tspan >TM3</tspan></text></g></g><g transform="translate(25.0, 77.2)"/></g></g></g><g stroke="black" stroke-width="1" stroke-linecap="round" transform="translate(0, 16.8)"><line x1="0.25" x2="799.5"/><line y2="63.2"/><line x1="0.25" x2="799.5" y1="63.2" y2="63.2"/><line x1="799.5" x2="799.5" y2="63.2"/><line x1="749.53125" x2="749.53125" y2="7.9"/><line x1="749.53125" x2="749.53125" y1="55.300000000000004" y2="63.2"/><line x1="699.5625" x2="699.5625" y2="7.9"/><line x1="699.5625" x2="699.5625" y1="55.300000000000004" y2="63.2"/><line x1="649.59375" x2="649.59375" y2="7.9"/><line x1="649.59375" x2="649.59375" y1="55.300000000000004" y2="63.2"/><line x1="599.625" x2="599.625" y2="7.9"/><line x1="599.625" x2="599.625" y1="55.300000000000004" y2="63.2"/><line x1="549.65625" x2="549.65625" y2="7.9"/><line x1="549.65625" x2="549.65625" y1="55.300000000000004" y2="63.2"/><line x1="499.6875" x2="499.6875" y2="7.9"/><line x1="499.6875" x2="499.6875" y1="55.300000000000004" y2="63.2"/><line x1="449.71875" x2="449.71875" y2="7.9"/><line x1="449.71875" x2="449.71875" y1="55.300000000000004" y2="63.2"/><line x1="399.75" x2="399.75" y2="63.2"/><line x1="349.78125" x2="349.78125" y2="7.9"/><line x1="349.78125" x2="349.78125" y1="55.300000000000004" y2="63.2"/><line x1="299.8125" x2="299.8125" y2="7.9"/><line x1="299.8125" x2="299.8125" y1="55.300000000000004" y2="63.2"/><line x1="249.84375" x2="249.84375" y2="7.9"/><line x1="249.84375" x2="249.84375" y1="55.300000000000004" y2="63.2"/><line x1="199.875" x2="199.875" y2="7.9"/><line x1="199.875" x2="199.875" y1="55.300000000000004" y2="63.2"/><line x1="149.90625" x2="149.90625" y2="7.9"/><line x1="149.90625" x2="149.90625" y1="55.300000000000004" y2="63.2"/><line x1="99.9375" x2="99.9375" y2="7.9"/><line x1="99.9375" x2="99.9375" y1="55.300000000000004" y2="63.2"/><line x1="49.96875" x2="49.96875" y2="7.9"/><line x1="49.96875" x2="49.96875" y1="55.300000000000004" y2="63.2"/></g></g></svg>
